<svg id="Layer_1" data-name="Layer 1" xmlns="http://www.w3.org/2000/svg" viewBox="0 0 186.06 186.06"><defs><style>.cls-1{fill:#505cb2;}.cls-2{fill:#52c9ec;}.cls-3{fill:#ff4c10;}.cls-4{fill:#78e7d9;}</style></defs><path class="cls-1" d="M153.84,9.11,144.73,0a134.5,134.5,0,0,0-22,29,134.49,134.49,0,0,0-11.37,26.44q-1.69,5.55-2.92,11.21a130.82,130.82,0,0,0-2.09,13.2,128.54,128.54,0,0,0-.18,26.46,131,131,0,0,1,13.23,2.1C114.67,71.9,127.05,35.9,153.84,9.11Z"/><path class="cls-1" d="M170,25.22l-9.11-9.11a109,109,0,0,0-30.25,95.26,131.33,131.33,0,0,1,14.26,5.29A96.12,96.12,0,0,1,170,25.22Z"/><path class="cls-1" d="M186.06,41.34,177,32.22A86.14,86.14,0,0,0,157,122.73a134.5,134.5,0,0,1,29,22,73.11,73.11,0,0,1,0-103.39Z"/><path class="cls-2" d="M157,122.73a134.15,134.15,0,0,0-26.43-11.36q-5.53-1.71-11.19-2.92a131,131,0,0,0-13.23-2.1,129.3,129.3,0,0,0-26.32-.19,130.13,130.13,0,0,1-2,13.22c36.49-4.67,72.39,7.73,99.12,34.46l9.11-9.11A134.5,134.5,0,0,0,157,122.73Z"/><path class="cls-2" d="M74.9,130.55a128.31,128.31,0,0,1-5.28,14.25A96.08,96.08,0,0,1,160.84,170l9.11-9.11A109,109,0,0,0,74.9,130.55Z"/><path class="cls-2" d="M63.48,157a136,136,0,0,1-22.15,29,73.21,73.21,0,0,1,103.4,0l9.11-9.11A86.11,86.11,0,0,0,63.48,157Z"/><path class="cls-3" d="M79.91,79.92a130.26,130.26,0,0,1-13.22-2.07c4.64,36.45-7.8,72.43-34.47,99.1l9.11,9.11a136,136,0,0,0,22.15-29,131.62,131.62,0,0,0,6.14-12.22,128.31,128.31,0,0,0,5.28-14.25c1.13-3.68,2.13-7.4,2.93-11.17a130.13,130.13,0,0,0,2-13.22A130,130,0,0,0,79.91,79.92Z"/><path class="cls-3" d="M55.53,75a128.65,128.65,0,0,1-14.26-5.31,96.08,96.08,0,0,1-25.16,91.17L25.22,170A109,109,0,0,0,55.53,75Z"/><path class="cls-3" d="M29.05,63.52A137,137,0,0,1,0,41.34,73.2,73.2,0,0,1,0,144.73l9.11,9.11A86.08,86.08,0,0,0,29.05,63.52Z"/><path class="cls-4" d="M93,67.7c-31.21,0-61-12.62-83.84-35.48L0,41.34A137,137,0,0,0,29.05,63.52a131.71,131.71,0,0,0,12.22,6.15A128.65,128.65,0,0,0,55.53,75Q61,76.66,66.69,77.85a130.26,130.26,0,0,0,13.22,2.07,128.32,128.32,0,0,0,13,.67H93a131.86,131.86,0,0,0,13.31-.7,130.82,130.82,0,0,1,2.09-13.2,120.32,120.32,0,0,1-15.4,1Z"/><path class="cls-4" d="M93.33,21.41H93A72.6,72.6,0,0,1,41.33,0L32.22,9.11A85.4,85.4,0,0,0,93,34.3h.36A86,86,0,0,0,122.73,29a134.5,134.5,0,0,1,22-29A72.67,72.67,0,0,1,93.33,21.41Z"/><path class="cls-4" d="M93,44.2a95.24,95.24,0,0,1-67.8-28.09l-9.11,9.11A108,108,0,0,0,93,57.09h.35a109.47,109.47,0,0,0,18-1.6,133.29,133.29,0,0,1,5.29-14.25,96.42,96.42,0,0,1-23.32,3Z"/></svg>